<svg width="98" height="99" viewBox="0 0 98 99" fill="none" xmlns="http://www.w3.org/2000/svg">
<path d="M53.3279 47.5242L67.0732 98.8223C67.0732 98.8223 84.2829 78.2543 98 69.8959C98 69.8959 90.1486 38.005 95.1232 19.6747L53.3279 47.5242Z" fill="#076170"/>
<path d="M78.2616 87.5002C78.2616 87.5002 66.8864 41.8109 67.8975 39.1118C68.8654 36.2508 82.1318 30.0944 82.1318 30.0944C82.1318 30.0944 87.8718 74.1717 89.9035 76.5758C90.022 76.3707 84.8467 80.359 78.2616 87.5002Z" fill="#B3690E"/>
<path d="M67.0733 98.8232C67.0733 98.8232 48.8034 90.1901 23.8848 89.7559C23.8848 89.7559 18.6838 63.2253 4.9356 45.5757L53.328 47.5251L67.0733 98.8232Z" fill="#3BAACF"/>
<path d="M34.3979 91.4464C34.3979 91.4464 49.4654 93.3061 50.9133 94.826C52.3612 96.3459 39.6132 48.7697 39.6132 48.7697C39.6132 48.7697 19.6159 48.5778 17.9977 49.0114C17.9977 49.0114 28.8214 66.7508 34.3979 91.4464Z" fill="#E9C243"/>
<path opacity="0.3" d="M53.3279 47.5244L55.626 56.1011L93.399 30.7169C93.5779 26.8533 94.1237 23.0648 94.9615 19.7183L53.3279 47.5244ZM10.2332 53.6949C8.60024 50.8371 6.84881 48.1844 4.77373 45.6185L53.1661 47.5678L55.4642 56.1445L10.2332 53.6949Z" fill="black"/>
<path d="M4.48509e-05 42.0445L48.8516 39.8816L96.5307 13.9244L45.79 24.5718L4.48509e-05 42.0445Z" fill="#4FC7E8"/>
<path d="M0.000122703 42.0429L6.45379 51.2405L52.0603 51.855L48.8516 39.88L0.000122703 42.0429Z" fill="#3BAACF"/>
<path d="M52.0598 51.8534C52.0598 51.8534 86.7581 27.2931 96.1323 24.0875C96.1323 24.0875 95.262 18.2502 96.5736 14.083L48.8511 39.8784L52.0598 51.8534Z" fill="#076170"/>
<path d="M14.5776 41.4303L26.3482 47.8157L35.4475 40.3477L49.283 31.7841L68.6616 29.0198L79.0532 28.3167L85.3349 20.0428L14.5776 41.4303Z" fill="#F0AE11"/>
<path d="M35.4478 40.3485L49.2833 31.7849L68.6619 29.0206L85.3352 20.0435L46.8381 26.543L14.5779 41.4311L35.4478 40.3485Z" fill="#F0AE11"/>
<path d="M14.5792 41.4333L17.6144 52.761L37.9353 52.8661L35.4491 40.3507L14.5792 41.4333Z" fill="#F8D048"/>
<path d="M68.663 29.0218L71.8918 39.7773L86.7734 30.5866L85.3362 20.0448L68.663 29.0218Z" fill="#C47116"/>
<path d="M56.4299 24.1473C56.4299 24.1473 53.3947 12.8196 61.7537 -0.00015694C61.7537 -0.00015694 55.7693 4.20498 52.3594 4.4249C48.3022 4.81826 45.7501 0.472251 45.7501 0.472251C45.7501 0.472251 41.8278 23.377 45.2726 25.229C48.7607 27.2429 56.4299 24.1473 56.4299 24.1473Z" fill="#EA9F07"/>
<path d="M43.8055 34.6415C43.8055 34.6415 34.0256 23.3867 18.7731 20.189C18.7731 20.189 29.0314 16.3996 31.1119 14.4546C33.7963 12.1743 34.4924 7.65178 34.4924 7.65178C34.4924 7.65178 51.6071 24.9196 51.46 28.2544C51.3129 31.5893 43.8055 34.6415 43.8055 34.6415Z" fill="#F8D048"/>
<path d="M50.2116 31.3654C50.2116 31.3654 41.3811 37.8942 28.7588 41.2763C2.17633 48.2256 -6.66217 30.1277 20.0303 24.8834C41.9864 20.7347 50.2116 31.3654 50.2116 31.3654Z" fill="#EA9F07"/>
<path d="M48.3885 31.6796C48.3885 31.6796 60.3 29.5286 70.4051 23.8724C91.4994 11.9763 78.4884 -2.92227 59.0789 10.0834C43.2062 20.7538 48.3885 31.6796 48.3885 31.6796Z" fill="#F0AE11"/>
<path d="M50.2116 31.3646C50.2116 31.3646 44.7127 35.4397 36.7833 37.5644C20.2773 41.9871 14.6413 30.6626 31.289 27.4159C44.9805 24.788 50.2116 31.3646 50.2116 31.3646Z" fill="#824000"/>
<path d="M50.2114 31.3645C50.2114 31.3645 58.476 29.8438 65.5614 25.8639C80.3361 17.569 71.14 7.19838 57.7582 16.1607C46.5869 23.6636 50.2114 31.3645 50.2114 31.3645Z" fill="#824000"/>
</svg>
