<svg width="100" height="100" viewBox="0 0 100 100" fill="none" xmlns="http://www.w3.org/2000/svg">
<path d="M85.1668 60.9999H72.6668V67.3332H85.1668C86.8334 67.3332 88.3334 68.6666 88.3334 70.4999C88.3334 72.3332 87.0001 73.6665 85.1668 73.6665H7.16726C5.5006 73.6665 4.00061 74.9999 4.00061 76.8332C4.00061 78.4998 5.33394 79.9998 7.16726 79.9998H85.3334C90.5001 79.9998 94.6667 75.8332 94.6667 70.6666C94.6667 65.1666 90.3334 60.9999 85.1668 60.9999ZM87.5001 39.5001L81.3335 39.0001C81.3335 38.8334 85.1668 16.0002 86.0001 11.3336C86.5001 8.66695 87.5001 1.16699 97 1.16699V7.50029C93.1667 7.50029 92.6667 9.00028 92.3334 11.8336C91.3334 16.5002 87.5001 39.1668 87.5001 39.5001Z" fill="#B2C1C0"/>
<path d="M87.8334 17.166H3.33393C0.167288 17.166 -0.33271 20.166 0.167287 21.8327L9.66723 64.1657C10.1672 65.8324 11.8339 67.1657 13.6672 67.1657H80.0001C81.6668 67.1657 83.3335 65.8324 83.6668 63.9991L90.6667 20.166C90.8334 18.666 89.5001 17.166 87.8334 17.166ZM8.16724 31.3326L6.50058 24.9993C6.33392 24.166 6.83391 23.4993 7.66724 23.4993H19.5005C20.3338 23.4993 21.1672 24.166 21.1672 24.9993L21.8338 31.3326C22.0005 32.1659 21.3338 32.8326 20.5005 32.8326H10.0006C9.16723 32.8326 8.33391 32.1659 8.16724 31.3326ZM13.5005 46.8325C12.6672 46.8325 11.8339 46.1658 11.5006 45.3325L10.3339 40.4992C10.1672 39.6659 10.6672 38.9992 11.5006 38.9992H21.0005C21.8338 38.9992 22.6672 39.6659 22.6672 40.4992L23.1671 45.1658C23.3338 45.9992 22.6672 46.6658 21.8338 46.6658C22.0005 46.8325 13.5005 46.8325 13.5005 46.8325ZM23.5005 60.9991H17.0005C16.1672 60.9991 15.3339 60.3324 15.0005 59.4991L13.8339 54.6658C13.6672 53.8325 14.1672 53.1658 15.0005 53.1658H22.5005C23.3338 53.1658 24.1671 53.8325 24.1671 54.6658L24.6671 59.3324C25.0005 60.1657 24.3338 60.9991 23.5005 60.9991ZM42.667 59.3324C42.667 60.1657 42.0004 60.8324 41.167 60.8324H33.0004C32.1671 60.8324 31.3338 60.1657 31.3338 59.3324L30.8338 54.6658C30.6671 53.8325 31.3338 53.1658 32.1671 53.1658H41.167C42.0004 53.1658 42.667 53.8325 42.667 54.6658V59.3324ZM42.667 45.3325C42.667 46.1658 42.0004 46.8325 41.167 46.8325H31.5004C30.6671 46.8325 29.8338 46.1658 29.8338 45.3325L29.3338 40.6659C29.1671 39.8325 29.8338 39.1659 30.6671 39.1659H41.167C42.0004 39.1659 42.667 39.8325 42.667 40.6659V45.3325ZM42.667 31.3326C42.667 32.1659 42.0004 32.8326 41.167 32.8326H30.0004C29.1671 32.8326 28.3338 32.1659 28.3338 31.3326L27.5005 24.9993C27.3338 24.166 28.0005 23.4993 28.8338 23.4993H41.0004C41.8337 23.4993 42.5004 24.166 42.5004 24.9993C42.667 24.9993 42.667 31.3326 42.667 31.3326ZM59.6669 59.3324C59.5003 60.1657 58.8336 60.8324 58.0003 60.8324H50.667C49.8337 60.8324 49.167 60.1657 49.167 59.3324V54.6658C49.167 53.8325 49.8337 53.1658 50.667 53.1658H58.8336C59.6669 53.1658 60.3336 53.8325 60.1669 54.6658L59.6669 59.3324ZM61.1669 45.3325C61.0003 46.1658 60.3336 46.8325 59.5003 46.8325H50.667C49.8337 46.8325 49.167 46.1658 49.167 45.3325V40.6659C49.167 39.8325 49.8337 39.1659 50.667 39.1659H60.3336C61.1669 39.1659 61.8336 39.8325 61.6669 40.6659L61.1669 45.3325ZM62.6669 31.3326C62.5002 32.1659 61.8336 32.8326 61.0002 32.8326H50.667C49.8337 32.8326 49.167 32.1659 49.167 31.3326V24.9993C49.167 24.166 49.8337 23.4993 50.667 23.4993H62.0002C62.8336 23.4993 63.5002 24.166 63.3336 24.9993L62.6669 31.3326ZM77.1668 59.3324C77.0002 60.1657 76.1668 60.8324 75.3335 60.8324H67.3335C66.5002 60.8324 65.8335 60.1657 66.0002 59.3324L66.5002 54.6658C66.6669 53.8325 67.3335 53.1658 68.1669 53.1658H76.6668C77.5002 53.1658 78.1668 53.8325 78.0001 54.6658L77.1668 59.3324ZM79.3335 45.3325C79.1668 46.1658 78.3335 46.8325 77.5002 46.8325H68.6669C67.8335 46.8325 67.1669 46.1658 67.3335 45.3325L67.8335 40.6659C68.0002 39.8325 68.6669 39.1659 69.5002 39.1659H78.6668C79.5001 39.1659 80.1668 39.8325 80.0001 40.6659L79.3335 45.3325ZM81.5001 31.3326C81.3335 32.1659 80.5001 32.8326 79.6668 32.8326H70.1669C69.3335 32.8326 68.6669 32.1659 68.8335 31.3326L69.5002 24.9993C69.6669 24.166 70.3335 23.4993 71.1669 23.4993H81.0001C81.8335 23.4993 82.5001 24.166 82.3335 24.9993L81.5001 31.3326Z" fill="#F15744"/>
<path d="M17.1671 99.9986C22.3218 99.9986 26.5004 95.8199 26.5004 90.6653C26.5004 85.5107 22.3218 81.332 17.1671 81.332C12.0125 81.332 7.83386 85.5107 7.83386 90.6653C7.83386 95.8199 12.0125 99.9986 17.1671 99.9986Z" fill="#62727A"/>
<path d="M17.1671 95.3313C19.7444 95.3313 21.8338 93.242 21.8338 90.6647C21.8338 88.0874 19.7444 85.998 17.1671 85.998C14.5898 85.998 12.5005 88.0874 12.5005 90.6647C12.5005 93.242 14.5898 95.3313 17.1671 95.3313Z" fill="white"/>
<path d="M73.5001 99.9986C78.6548 99.9986 82.8334 95.8199 82.8334 90.6653C82.8334 85.5107 78.6548 81.332 73.5001 81.332C68.3455 81.332 64.1669 85.5107 64.1669 90.6653C64.1669 95.8199 68.3455 99.9986 73.5001 99.9986Z" fill="#62727A"/>
<path d="M78.1668 90.6647C78.1668 93.3313 76.0001 95.3313 73.5001 95.3313C70.8335 95.3313 68.8335 93.1647 68.8335 90.6647C68.8335 87.998 71.0001 85.998 73.5001 85.998C76.0001 85.998 78.1668 87.998 78.1668 90.6647Z" fill="white"/>
<path d="M98.5 0H93.8334V9.33328H98.5C99.3333 9.33328 100 8.66661 100 7.83328V1.49999C100 0.666663 99.3333 0 98.5 0Z" fill="#62727A"/>
<path d="M17.1672 78.166C10.3339 78.166 4.66724 83.8326 4.66724 90.6659H29.6671C29.6671 83.666 24.1671 78.166 17.1672 78.166ZM73.5001 78.166C66.6668 78.166 61.0002 83.8326 61.0002 90.6659H86.0001C86.0001 83.666 80.3334 78.166 73.5001 78.166Z" fill="#F15744"/>
</svg>
