<svg width="24" height="24" viewBox="0 0 24 24" fill="none" xmlns="http://www.w3.org/2000/svg">
<path d="M22 21.2497C22 21.6597 21.66 21.9997 21.25 21.9997H2.75C2.34 21.9997 2 21.6597 2 21.2497C2 20.8397 2.34 20.4997 2.75 20.4997H21.25C21.66 20.4997 22 20.8397 22 21.2497ZM15.391 4.52172L4.651 15.2617C4.241 15.6717 3.581 15.6717 3.181 15.2617H3.171C2.50355 14.5909 2.12887 13.683 2.12887 12.7367C2.12887 11.7904 2.50355 10.8826 3.171 10.2117L10.321 3.06172C11.721 1.66172 13.981 1.66172 15.381 3.06172C15.791 3.45172 15.791 4.12172 15.391 4.52172Z" fill="#FF822B"/>
<path d="M20.821 8.49031L17.771 5.44031C17.361 5.03031 16.701 5.03031 16.301 5.44031L5.56104 16.1803C5.15104 16.5803 5.15104 17.2403 5.56104 17.6503L8.61104 20.7103C9.28372 21.3781 10.1932 21.7529 11.141 21.7529C12.0889 21.7529 12.9984 21.3781 13.671 20.7103L20.811 13.5603C22.231 12.1603 22.231 9.89031 20.821 8.49031ZM12.761 17.5203L11.551 18.7403C11.301 18.9903 10.891 18.9903 10.631 18.7403C10.5108 18.6174 10.4435 18.4523 10.4435 18.2803C10.4435 18.1084 10.5108 17.9433 10.631 17.8203L11.851 16.6003C12.091 16.3603 12.511 16.3603 12.761 16.6003C13.011 16.8503 13.011 17.2803 12.761 17.5203ZM16.731 13.5503L14.291 16.0003C14.041 16.2403 13.631 16.2403 13.371 16.0003C13.2508 15.8774 13.1835 15.7123 13.1835 15.5403C13.1835 15.3684 13.2508 15.2033 13.371 15.0803L15.821 12.6303C16.061 12.3903 16.481 12.3903 16.731 12.6303C16.981 12.8903 16.981 13.3003 16.731 13.5503Z" fill="#FF822B"/>
</svg>
