<svg width="44" height="44" viewBox="0 0 44 44" fill="none" xmlns="http://www.w3.org/2000/svg">
<path d="M23.7437 21.1595L29.8636 43.9994C29.8636 43.9994 37.5261 34.8417 43.6334 31.1202C43.6334 31.1202 40.1377 16.9212 42.3526 8.75983L23.7437 21.1595Z" fill="#076170"/>
<path d="M34.845 38.9583C34.845 38.9583 29.7803 18.6157 30.2305 17.4139C30.6614 16.1401 36.5682 13.3991 36.5682 13.3991C36.5682 13.3991 39.1238 33.024 40.0284 34.0944C40.0812 34.003 37.777 35.7788 34.845 38.9583Z" fill="#B3690E"/>
<path d="M29.8637 43.9997C29.8637 43.9997 21.7292 40.1559 10.6345 39.9626C10.6345 39.9626 8.31883 28.1501 2.19761 20.2918L23.7438 21.1598L29.8637 43.9997Z" fill="#3BAACF"/>
<path d="M15.3153 40.7164C15.3153 40.7164 22.0239 41.5444 22.6686 42.2211C23.3132 42.8978 17.6373 21.7151 17.6373 21.7151C17.6373 21.7151 8.73378 21.6296 8.01328 21.8227C8.01328 21.8227 12.8324 29.721 15.3153 40.7164Z" fill="#E9C243"/>
<path opacity="0.3" d="M23.7436 21.1595L24.7668 24.9782L41.5848 13.6762C41.6644 11.9559 41.9075 10.2691 42.2805 8.77916L23.7436 21.1595ZM4.5562 23.9069C3.82914 22.6344 3.04933 21.4534 2.12543 20.3109L23.6716 21.1788L24.6948 24.9975L4.5562 23.9069Z" fill="black"/>
<path d="M9.78576e-05 18.7195L21.7507 17.7565L42.9792 6.19938L20.3875 10.94L9.78576e-05 18.7195Z" fill="#4FC7E8"/>
<path d="M0 18.719L2.87342 22.8141L23.1792 23.0877L21.7506 17.756L0 18.719Z" fill="#3BAACF"/>
<path d="M23.1789 23.0868C23.1789 23.0868 38.6279 12.1516 42.8017 10.7244C42.8017 10.7244 42.4142 8.1254 42.9981 6.27002L21.7503 17.7551L23.1789 23.0868Z" fill="#076170"/>
<path d="M6.4904 18.445L11.7311 21.288L15.7825 17.963L21.9426 14.1501L30.5707 12.9194L35.1974 12.6063L37.9943 8.92241L6.4904 18.445Z" fill="#F0AE11"/>
<path d="M15.7827 17.9635L21.9428 14.1506L30.5709 12.9199L37.9945 8.92293L20.8541 11.8168L6.49065 18.4455L15.7827 17.9635Z" fill="#F0AE11"/>
<path d="M6.49122 18.4474L7.84262 23.4909L16.8903 23.5377L15.7833 17.9654L6.49122 18.4474Z" fill="#F8D048"/>
<path d="M30.5714 12.9214L32.009 17.7102L38.6348 13.6181L37.995 8.92448L30.5714 12.9214Z" fill="#C47116"/>
<path d="M25.1247 10.7512C25.1247 10.7512 23.7733 5.70766 27.4951 -0.000191685C27.4951 -0.000191685 24.8306 1.8721 23.3124 1.97001C21.506 2.14515 20.3697 0.210143 20.3697 0.210143C20.3697 0.210143 18.6233 10.4082 20.1571 11.2328C21.7101 12.1295 25.1247 10.7512 25.1247 10.7512Z" fill="#EA9F07"/>
<path d="M19.5039 15.4236C19.5039 15.4236 15.1494 10.4125 8.35844 8.98882C8.35844 8.98882 12.9259 7.30164 13.8522 6.43565C15.0474 5.42039 15.3573 3.40677 15.3573 3.40677C15.3573 3.40677 22.9774 11.0951 22.9119 12.5799C22.8464 14.0647 19.5039 15.4236 19.5039 15.4236Z" fill="#F8D048"/>
<path d="M22.3561 13.964C22.3561 13.964 18.4243 16.8708 12.8044 18.3767C0.968896 21.4708 -2.96634 13.4129 8.91815 11.0779C18.6939 9.23073 22.3561 13.964 22.3561 13.964Z" fill="#EA9F07"/>
<path d="M21.5444 14.1046C21.5444 14.1046 26.8478 13.1469 31.347 10.6285C40.739 5.3319 34.946 -1.30151 26.3041 4.48911C19.237 9.23999 21.5444 14.1046 21.5444 14.1046Z" fill="#F0AE11"/>
<path d="M22.356 13.9633C22.356 13.9633 19.9077 15.7777 16.3772 16.7237C9.02813 18.6929 6.51875 13.6508 13.931 12.2052C20.027 11.0352 22.356 13.9633 22.356 13.9633Z" fill="#824000"/>
<path d="M22.3561 13.9633C22.3561 13.9633 26.0358 13.2862 29.1905 11.5143C35.7688 7.82105 31.6743 3.20364 25.7162 7.19403C20.7423 10.5346 22.3561 13.9633 22.3561 13.9633Z" fill="#824000"/>
</svg>
